<svg width="742" height="23" viewBox="0 0 742 23" fill="none" xmlns="http://www.w3.org/2000/svg">
<g style="mix-blend-mode:multiply" filter="url(#filter0_b_2_35)">
<path d="M2 11.3679C42.3881 11.3679 82.7761 11.3679 123.164 11.3679C158.018 11.3679 194.786 10.3164 229.292 12.002C260.513 13.5272 291.048 15 322.657 15C362.112 15 401.568 15 441.023 15C501.024 15 559.588 14.0814 618.136 9.52297C638.338 7.95016 657.883 6.1791 678.631 6.1791C691.22 6.1791 703.808 6.1791 716.397 6.1791C721.699 6.1791 737.188 5.36244 740 7.21686" stroke="#CA47BD" stroke-width="3" stroke-linecap="round"/>
</g>
<path d="M15.8735 7.48212V12.2063" stroke="#CA47BD" stroke-width="3" stroke-linecap="round"/>
<path d="M47.3683 9.05685C47.3683 10.9021 46.5537 16.1296 48.1556 16.9305" stroke="#CA47BD" stroke-width="3" stroke-linecap="round"/>
<path d="M77.2882 10.6316C77.4289 11.8979 78.675 12.506 79.6503 12.9937" stroke="#CA47BD" stroke-width="3" stroke-linecap="round"/>
<path d="M116.657 9.05685C118.551 9.29364 116.521 13.713 118.231 14.5684" stroke="#CA47BD" stroke-width="3" stroke-linecap="round"/>
<path d="M159.962 9.05685V10.6316" stroke="#CA47BD" stroke-width="3" stroke-linecap="round"/>
<path d="M198.543 11.419V15.3558" stroke="#CA47BD" stroke-width="3" stroke-linecap="round"/>
<path d="M237.124 8.2695V15.3558" stroke="#CA47BD" stroke-width="3" stroke-linecap="round"/>
<path d="M287.516 18.5053V19.2926" stroke="#CA47BD" stroke-width="3" stroke-linecap="round"/>
<path d="M321.372 7.48212V15.3558" stroke="#CA47BD" stroke-width="3" stroke-linecap="round"/>
<path d="M378.063 12.2063V13.7811" stroke="#CA47BD" stroke-width="3" stroke-linecap="round"/>
<path d="M426.092 12.2063C426.092 14.584 425.895 15.9458 427.667 17.7179" stroke="#CA47BD" stroke-width="3" stroke-linecap="round"/>
<path d="M464.673 9.84424C464.673 11.9507 464.574 13.5828 465.461 15.3558" stroke="#CA47BD" stroke-width="3" stroke-linecap="round"/>
<path d="M504.829 15.3558V16.1432" stroke="#CA47BD" stroke-width="3" stroke-linecap="round"/>
<path d="M544.198 14.5684V20.8674" stroke="#CA47BD" stroke-width="3" stroke-linecap="round"/>
<path d="M584.353 5.12003C584.353 6.2988 584.979 7.79519 585.928 8.2695" stroke="#CA47BD" stroke-width="3" stroke-linecap="round"/>
<path d="M623.722 9.05685V14.5684" stroke="#CA47BD" stroke-width="3" stroke-linecap="round"/>
<path d="M663.877 1.97055V4.33265" stroke="#CA47BD" stroke-width="3" stroke-linecap="round"/>
<path d="M703.246 5.12003V6.69476" stroke="#CA47BD" stroke-width="3" stroke-linecap="round"/>
<defs>
<filter id="filter0_b_2_35" x="-1.5" y="2.5" width="745" height="16" filterUnits="userSpaceOnUse" color-interpolation-filters="sRGB">
<feFlood flood-opacity="0" result="BackgroundImageFix"/>
<feGaussianBlur in="BackgroundImageFix" stdDeviation="1"/>
<feComposite in2="SourceAlpha" operator="in" result="effect1_backgroundBlur_2_35"/>
<feBlend mode="normal" in="SourceGraphic" in2="effect1_backgroundBlur_2_35" result="shape"/>
</filter>
</defs>
</svg>
